<svg height="511pt" viewBox="0 -10 511.99988 511" width="511pt" xmlns="http://www.w3.org/2000/svg"><g fill-rule="evenodd"><path d="m201.761719 61.007812c0-27.847656-22.585938-50.425781-50.441407-50.425781-27.855468 0-50.441406 22.578125-50.441406 50.425781 0 27.820313 22.554688 50.398438 50.410156 50.425782h.03125.167969c27.800781-.082032 50.273438-22.632813 50.273438-50.425782zm0 0" fill="#ffddcf"/><path d="m151.320312 111.433594h-.03125zm80.84375 69.578125c0-38.273438-31.3125-69.578125-69.59375-69.578125h-11.078124c-.058594 0-.113282 0-.171876 0h-.027343c-.027344 0-.027344 0-.027344 0-3.828125.03125-7.679687 0-11.507813 0-38.28125 0-69.59375 31.304687-69.59375 69.578125 0 4.390625.425782 8.722656 1.21875 12.917969h159.566407c.792969-4.195313 1.214843-8.527344 1.214843-12.917969zm0 0" fill="#52cbf0"/><path d="m230.945312 193.929688h-193.9375c-14.820312 0-26.921874 10.59375-26.921874 23.566406 0 12.976562 12.101562 23.570312 26.921874 23.570312h282.125l29.019532-32.832031c1.585937-5.4375 4.109375-10.226563 7.507812-14.304687zm0 0" fill="#b0e7f8"/><path d="m319.136719 241.066406h-270.144531v130.855469h290.886718l6.316406-32.015625v-61.753906l-29.441406 36.398437c-8.019531 9.917969-22.355468 12.75-32.898437 4.988281-10.117188-7.453124-13.773438-22.945312-5.015625-32.890624zm0 0" fill="#ffbd5a"/><path d="m454.53125 93.246094c-16.097656 2.804687-35.933594 4.449218-57.382812 4.449218-20.746094 0-39.984376-1.53125-55.796876-4.164062-1.984374 5.917969-3.0625 12.265625-3.0625 18.867188 0 32.972656 26.722657 59.6875 59.679688 59.6875 32.984375 0 59.707031-26.714844 59.707031-59.6875 0-6.6875-1.105469-13.144532-3.144531-19.152344zm0 0" fill="#ffddcf"/><path d="m356.34375 53.304688c-33.496094 3.683593-56.734375 11.753906-56.734375 21.132812 0 7.902344 16.523437 14.871094 41.742187 19.09375 15.8125 2.632812 35.054688 4.164062 55.796876 4.164062 21.453124 0 41.289062-1.644531 57.382812-4.449218 24.339844-4.21875 40.183594-11.074219 40.183594-18.808594 0-9.238281-22.585938-17.222656-55.289063-20.992188.171875 1.445313.257813 2.886719.257813 4.363282 0 1.839844-.144532 3.652344-.398438 5.4375-2.039062.28125-4.164062.566406-6.320312.820312-22.386719 2.578125-50.351563 2.917969-70.246094.199219-2.183594-.3125-4.277344-.652344-6.234375-1.019531-.285156-1.785156-.425781-3.597656-.425781-5.4375 0-1.53125.113281-3.03125.285156-4.503906zm0 0" fill="#ffd89e"/><path d="m439.425781 53.445312c-2.292969-19.6875-20.03125-35.015624-41.542969-35.015624-21.476562 0-39.160156 15.242187-41.539062 34.875-.171875 1.472656-.285156 2.972656-.285156 4.503906 0 1.839844.140625 3.652344.425781 5.4375 1.953125.367187 4.050781.707031 6.234375 1.019531 19.890625 2.71875 47.859375 2.378906 70.246094-.199219 2.152344-.253906 4.28125-.539062 6.320312-.820312.253906-1.785156.398438-3.597656.398438-5.4375 0-1.472656-.085938-2.917969-.257813-4.363282zm0 0" fill="#ffbd5a"/><path d="m397.371094 176.902344c-18.925782.792968-33.125 6.714844-41.710938 17.023437-3.398437 4.082031-5.921875 8.871094-7.507812 14.308594-1.304688 4.476563-1.957032 9.375-1.957032 14.675781v92.664063h103.714844v-92.664063c0-24.648437-20.515625-47.339844-52.539062-46.007812zm0 0" fill="#ffd89e"/><path d="m348.152344 208.234375-29.019532 32.832031-40.292968 45.582032c-8.050782 9.121093-5.753906 23.398437 3.257812 31.445312.539063.507812 1.132813.992188 1.753906 1.445312 10.542969 7.761719 24.882813 4.929688 32.902344-4.988281l29.441406-36.398437v-55.242188c0-5.300781.652344-10.199218 1.957032-14.675781zm0 0" fill="#ffd89e"/><path d="m449.910156 315.574219h-103.714844v24.332031l-6.316406 32.015625-10.230468 51.925781c-8.785157 44.703125 50.46875 53.484375 58.347656 12.578125l12.554687-65.101562 28.054688 73.003906c20.742187 34.335937 68.460937 12.066406 52.449219-27.421875l-31.140626-76.855469v-24.476562zm0 0" fill="#52cbf0"/></g><path d="m481.292969 416.808594-31.125-76.808594v-24.425781c0-.140625-.113281-.257813-.257813-.257813h-103.714844c-.140624 0-.257812.117188-.257812.257813l.007812 24.285156-16.550781 83.9375c-2.839843 14.445313 1.578125 23.574219 5.785157 28.6875 5.496093 6.679687 13.84375 10.507813 22.90625 10.507813 11.558593 0 26.390624-6.945313 30.160156-26.519532l12.382812-64.214844 27.753906 72.203126c6.550782 10.847656 16.597657 17.066406 27.5625 17.066406 9.542969 0 18.390626-4.671875 23.664063-12.5 5.9375-8.8125 6.535156-20.253906 1.683594-32.21875zm-2.109375 31.929687c-5.179688 7.6875-13.867188 12.273438-23.238282 12.273438-10.777343 0-20.664062-6.128907-27.101562-16.777344l-28.054688-73.003906c-.042968-.105469-.148437-.171875-.265624-.164063-.113282.011719-.207032.097656-.226563.210938l-12.554687 65.097656c-3.710938 19.265625-18.292969 26.101562-29.652344 26.101562-8.910156 0-17.117188-3.761718-22.511719-10.320312-4.136719-5.027344-8.480469-14.011719-5.679687-28.261719l16.554687-83.988281v-24.074219h103.203125v24.21875c0 .03125.003906.0625.019531.09375l31.140625 76.855469c4.785156 11.804688 4.203125 23.074219-1.632812 31.738281zm0 0" fill="#221f20"/><path d="m432.9375 222.683594c-8.867188-9.039063-23.632812-8.046875-32.246094.707031-.140625.140625-.285156.285156-.425781.453125-8.417969 9.039062-7.792969 22.777344.425781 31.871094.253906.253906.480469.535156.734375.792968l26.410157 26.882813 35.394531 36.121094c9.011719 9.179687 24.113281 7.988281 32.675781-1.191407 8.667969-9.292968 7.734375-23.566406-1.164062-32.632812l-39.390626-40.144531zm0 0" fill="#ffd89e" fill-rule="evenodd"/><path d="m93.085938 393.421875 93.570312-98.074219c7.625-8.019531 20.402344-8.332031 28.421875-.683594l55.65625 53.0625c7.992187 7.621094 8.300781 20.394532.679687 28.386719l-93.570312 98.101563c-7.652344 7.988281-20.429688 8.300781-28.421875.679687l-55.65625-53.0625c-8.019531-7.617187-8.300781-20.421875-.679687-28.410156zm0 0" fill="#b0e7f8" fill-rule="evenodd"/><path d="m186.65625 295.347656-73.054688 76.574219-20.515624 21.5c-7.621094 7.988281-7.339844 20.792969.679687 28.414063l10.511719 10.027343 57.1875-59.941406 64.125-67.226563-10.511719-10.027343c-8.019531-7.648438-20.796875-7.339844-28.421875.679687zm0 0" fill="#52cbf0" fill-rule="evenodd"/><path d="m501.941406 278.621094-41.945312-42.757813v-12.953125c0-14.796875-5.859375-28.71875-16.511719-39.203125-3.867187-3.804687-8.265625-7-13.058594-9.566406 5.921875-3.125 11.339844-7.074219 16.101563-11.695313.558594-.449218 1.066406-.957031 1.519531-1.519531 12.1875-12.566406 19.714844-29.683593 19.714844-48.527343 0-3.824219-.308594-7.613282-.917969-11.339844.542969-.125 1.097656-.242188 1.628906-.371094 24.445313-5.828125 36.328125-14.414062 36.328125-26.25 0-14.753906-19.171875-24.867188-57.003906-30.09375-6.167969-20.75-26.199219-35.996094-49.910156-35.996094-23.65625 0-43.652344 15.15625-49.886719 35.808594-38.804688 5.136719-58.476562 15.3125-58.476562 30.28125 0 11.835938 11.878906 20.421875 36.316406 26.25 1.054687.253906 2.140625.496094 3.234375.738281-.574219 3.617188-.867188 7.28125-.867188 10.972657 0 26.710937 15.089844 49.949218 37.183594 61.671874-5.414063 2.609376-10.136719 5.886719-14.125 9.773438h-109.082031c.035156-.945312.066406-1.890625.066406-2.832031 0-33.902344-21.304688-62.910157-51.226562-74.390625 12.746093-11.101563 20.820312-27.425782 20.820312-45.609375 0-33.367188-27.152344-60.511719-60.523438-60.511719-33.375 0-60.527343 27.144531-60.527343 60.511719 0 18.136719 8.035156 34.425781 20.722656 45.527343-30.035156 11.421876-51.441406 40.488282-51.441406 74.472657 0 .941406.035156 1.886719.066406 2.832031h-23.132813c-20.40625 0-37.007812 15.097656-37.007812 33.652344 0 18.558594 16.601562 33.65625 37.007812 33.65625h1.898438v120.769531c0 5.566406 4.515625 10.082031 10.085938 10.082031h41.046874l-4.253906 4.457032c-5.554687 5.824218-8.507812 13.488281-8.308594 21.578124.199219 8.074219 3.515626 15.574219 9.328126 21.09375l10.449218 9.960938c.019532.023438.039063.046875.0625.066406.023438.023438.046875.039063.070313.0625l45.074219 42.972656c5.617187 5.355469 13.003906 8.304688 20.804687 8.304688 8.226563 0 16.195313-3.394531 21.875-9.324219l93.570313-98.101562c.332031-.347657.652343-.707031.96875-1.070313h47.9375l-7.867188 39.898438c-2.789062 14.207031-.007812 27.28125 7.839844 36.820312 7.363281 8.957032 18.480468 14.09375 30.496094 14.097656h.007812c16.507812 0 35.214844-10.664062 39.804688-34.484374l5.878906-30.492188 15.410156 40.101562c.214844.554688.472656 1.089844.78125 1.597657 8.375 13.863281 21.488281 21.8125 35.976562 21.8125 12.816407 0 24.710938-6.292969 31.816407-16.835938 7.816406-11.609375 8.757812-26.3125 2.640625-41.398437l-30.40625-75.035156v-8.105469c5.320312 3.851562 11.757812 5.933593 18.585937 5.933593 9.347657 0 18.347657-3.90625 24.695313-10.710937 12.128906-13 11.539062-33.460937-1.335938-46.582031zm-135.554687-224.394532c1.921875-14.46875 15.3125-25.710937 31.496093-25.710937 16.210938 0 29.617188 11.289063 31.488282 25.804687-10.734375 1.148438-22.632813 1.769532-34.324219 1.769532-10.636719 0-20.527344-.535156-28.707031-1.527344.015625-.113281.035156-.222656.046875-.335938zm-23.84375 29.257813c-2.21875-.371094-4.375-.769531-6.457031-1.191406-13.480469-2.726563-20.851563-5.804688-24.359376-7.867188 4.449219-2.617187 14.882813-6.691406 34.785157-9.683593.003906.027343.007812.058593.011719.085937.664062 4.195313 3.890624 7.527344 8.066406 8.324219 13.425781 2.566406 29.414062 3.105468 40.457031 3.105468h.003906c15.796875 0 32.015625-1.074218 45.664063-3.027343 4.34375-.621094 7.769531-3.980469 8.503906-8.285157 18.996094 2.980469 29.035156 6.929688 33.375 9.480469-3.515625 2.0625-10.886719 5.140625-24.371094 7.867188-16.953125 3.429687-38.644531 5.320312-61.074218 5.320312-19.59375 0-38.617188-1.441406-54.414063-4.09375-.0625-.007812-.128906-.027343-.191406-.035156zm5.832031 28.914063c0-2.546876.199219-5.070313.582031-7.566407 14.660157 1.921875 31.121094 2.949219 48.191407 2.949219 17.710937 0 34.761718-1.105469 49.832031-3.171875.402343 2.5625.613281 5.160156.613281 7.789063 0 11.75-4.117188 22.550781-10.972656 31.058593-11.277344-3.390625-18.378906-10.699219-18.558594-10.890625-3.785156-4.050781-10.136719-4.289062-14.214844-.523437-4.089844 3.777343-4.34375 10.160156-.5625 14.25.351563.378906 5.796875 6.179687 15.144532 11.277343-6.242188 2.835938-13.167969 4.429688-20.460938 4.429688-27.34375 0-49.59375-22.25-49.59375-49.601562zm7.90625 165.65625v-55.144532c0-28.269531 22.574219-35.144531 41.511719-35.929687.757812-.035157 1.507812-.046875 2.25-.046875 21.558593 0 34.835937 12.898437 38.644531 27.300781-.160156-.144531-.328125-.28125-.496094-.421875-5.148437-4.425781-12.820312-7.542969-20.640625-7.542969-9.355469 0-18.347656 3.902344-24.660156 10.695313-.378906.40625-.746094.816406-1.097656 1.238281-4.953125 5.878906-7.480469 13.101563-7.613281 20.429687-.148438 8.375 2.828124 16.886719 8.882812 23.6875.378906.425782.765625.84375 1.171875 1.253907l26.398437 26.875 14.738282 15.039062h-79.089844v-27.425781c0-.003906 0-.003906 0-.007812zm-20.171875-3.472657-27.199219 33.628907c-4.296875 5.316406-12.605468 7.96875-19.078125 3.207031-.335937-.246094-.652343-.519531-.964843-.796875-.011719-.011719-.023438-.023438-.039063-.039063-.054687-.046875-.109375-.085937-.164063-.132812-2.546874-2.347657-4.234374-5.644531-4.601562-9.082031-.234375-2.195313-.023438-5.375 2.332031-8.039063l49.71875-56.246094v37.5zm-225.144531-213.574219c0-22.242187 18.101562-40.339843 40.355468-40.339843 22.25 0 40.355469 18.097656 40.355469 40.339843 0 22.246094-18.105469 40.34375-40.355469 40.34375-22.253906 0-40.355468-18.097656-40.355468-40.34375zm28.792968 60.511719 1.449219.003907-.085937 32.320312c-.015625 5.570312 4.488281 10.097656 10.058594 10.113281h.027343c5.554688 0 10.066407-4.5 10.082031-10.058593l.089844-32.378907h1.191406c32.8125 0 59.507813 26.6875 59.507813 59.492188 0 .941406-.019531 1.886719-.066406 2.832031h-141.695313c-.046875-.945312-.070312-1.890625-.070312-2.832031 0-32.804688 26.695312-59.492188 59.511718-59.492188zm-39.042968 293.003907c-1.914063-1.820313-3.003906-4.296876-3.070313-6.980469-.066406-2.695313.90625-5.238281 2.738281-7.160157l18.914063-19.824218c1.5625-.9375 2.851563-2.28125 3.714844-3.894532l70.953125-74.371093c1.890625-1.988281 4.464844-3.085938 7.242187-3.085938 2.59375 0 5.050781.980469 6.914063 2.757813l3.214844 3.0625-107.390626 112.578125zm163.402344-45.371094-93.558594 98.085937c-1.90625 1.996094-4.496094 3.089844-7.289063 3.089844-2.59375 0-5.039062-.96875-6.890625-2.730469l-37.835937-36.078125 107.390625-112.574219 37.839844 36.078126c1.917968 1.828124 3.007812 4.3125 3.074218 7 .0625 2.683593-.90625 5.214843-2.730468 7.128906zm-.113282-65.644532c.542969 5.097657 2.230469 9.957032 4.84375 14.261719l-6.875 7.667969-39.933594-38.070312c-5.628906-5.371094-13.027343-8.328126-20.832031-8.328126-8.238281 0-16.203125 3.410157-21.847656 9.34375l-70.078125 73.449219h-50.203125v-110.679687h99.410156c5.570313 0 10.085938-4.515625 10.085938-10.085938 0-5.570312-4.515625-10.082031-10.085938-10.082031h-121.480469c-9.128906 0-16.835937-6.175781-16.835937-13.484375 0-7.3125 7.707031-13.484375 16.835937-13.484375h301.417969l-23.839843 26.96875h-75.421876c-5.566406 0-10.082031 4.515625-10.082031 10.082031 0 5.570313 4.515625 10.085938 10.082031 10.085938h57.59375l-25.476562 28.820312c-5.632812 6.375-8.21875 14.734375-7.277344 23.535156zm72.105469 35.414063-4.515625 22.914063h-44.582031c-.003907-.101563 0-.199219 0-.296876-.195313-8.070312-3.503907-15.566406-9.320313-21.109374l-1.117187-1.066407 7.351562-8.199219c4.296875 1.929688 8.890625 2.894532 13.488281 2.894532 10.101563 0 20.207032-4.539063 27.179688-13.164063l11.519531-14.238281v32.265625zm135.597656 81.773437c3.519531 8.675782 3.277344 16.683594-.675781 22.550782-3.347656 4.972656-8.988281 7.941406-15.085938 7.941406-7.136718 0-13.597656-4.027344-18.269531-11.363281l-27.714843-72.117188c-1.613282-4.203125-5.824219-6.835937-10.300782-6.429687-4.484375.398437-8.164062 3.71875-9.015625 8.136718l-12.554687 65.105469c-2.574219 13.367188-12.019532 18.132813-20 18.132813-5.875-.003906-11.453125-2.519532-14.925782-6.742188-4-4.863281-5.253906-11.820312-3.625-20.113281l16.550782-83.9375c.125-.644531.1875-1.296875.1875-1.953125v-14.25h83.546875v14.394531c0 1.296875.25 2.582031.738281 3.785157zm16.820313-109.253906c-2.511719 2.695313-6.230469 4.300782-9.949219 4.300782-2.238281 0-5.476563-.570313-8.144531-3.289063l-13.253906-13.523437c-.023438-.023438-.039063-.050782-.0625-.074219l-22.085938-22.53125-26.394531-26.867188c-5.304688-5.421875-5.742188-13.648437-.984375-18.75 2.488281-2.671875 6.1875-4.269531 9.898437-4.269531.5625 0 1.191407.035156 1.855469.132812.382812.054688.785156.140626 1.195312.242188 1.691407.425781 3.515626 1.28125 5.136719 2.929688l.074219.078124 16.898438 17.230469c.019531.019531.042968.039063.058593.058594l44.773438 45.640625c5.296875 5.398438 5.730469 13.605469.984375 18.691406zm0 0"/><path d="m199.011719 230.980469h-.199219c-5.570312 0-10.085938 4.515625-10.085938 10.085937 0 5.570313 4.515626 10.085938 10.085938 10.085938h.199219c5.570312 0 10.085937-4.515625 10.085937-10.085938 0-5.570312-4.515625-10.085937-10.085937-10.085937zm0 0"/></svg>