<svg id="Layer_1" enable-background="new 0 0 512 512" height="512" viewBox="0 0 512 512" width="512" xmlns="http://www.w3.org/2000/svg"><g><g><g><g><path d="m180.963 92.08h-83.953v-34.018c0-10.02 8.122-18.142 18.142-18.142h47.669c10.02 0 18.142 8.122 18.142 18.142z" fill="#355f7f"/><path d="m162.821 39.92h-30c10.019 0 18.142 8.122 18.142 18.142v34.018h30v-34.018c0-10.02-8.123-18.142-18.142-18.142z" fill="#305972"/><g><path d="m225.37 274.826v-58.571c0-16.047-11.165-29.933-26.839-33.378l-41.962-9.222c-5.224-1.148-8.946-5.777-8.946-11.126v-34.697h-32.274v34.697c0 5.349-3.722 9.978-8.946 11.126l-41.962 9.222c-15.673 3.445-26.839 17.33-26.839 33.378v58.571z" fill="#82aee3"/></g><g><path d="m213.532 182.877-41.962-9.222c-5.224-1.148-8.946-5.777-8.946-11.126v-34.697h-23.637v46.184c0 5.349 3.722 9.978 8.946 11.126l41.962 9.222c15.673 3.445 26.839 17.331 26.839 33.378v47.085h23.637v-58.571c-.001-16.048-11.166-29.934-26.839-33.379z" fill="#528fd8"/></g><g><path d="m138.986 194.271 25.499-25.501c-1.184-1.806-16.862-3.958-16.862-6.242v-34.697h-32.274v34.697c0 2.283-.678 4.436-1.862 6.242z" fill="#ffcebf"/></g><path d="m163.33 166.469c-.464-1.254-.704-2.593-.706-3.931 0-.003 0-.006 0-.01v-34.697h-23.637v46.184c0 5.349 3.722 9.978 8.946 11.126l.15.033 16.403-16.404c-.47-.719-.858-1.495-1.156-2.301z" fill="#ffb09e"/><path d="m97.01 88.413v24.639c0 23.183 18.794 41.977 41.977 41.977 23.183 0 41.977-18.794 41.977-41.977v-24.639l-20.387-8.853c-5.767-2.504-12.187-3.088-18.312-1.665z" fill="#ffcebf"/><path d="m150.963 77.213v35.839c.202 2.147 1.114 14.065-7.574 24.05-10.726 12.328-26.6 10.806-28.04 10.643 3.162 2.131 8.498 5.137 15.696 6.528 0 0 3.996.756 7.941.756 23.183 0 41.977-18.793 41.977-41.977v-24.639l-20.386-8.853c-1.335-.581-2.977-1.176-4.896-1.631-1.758-.416-3.357-.622-4.718-.716z" fill="#ffb09e"/></g><path d="m22.5 502v-207.877h467v207.877c0 5.523-4.477 10-10 10h-447c-5.523 0-10-4.477-10-10z" fill="#eaf6ff"/><path d="m468.102 307.479h-445.602c-8.284 0-15-6.716-15-15v-30.377c0-8.284 6.716-15 15-15h445.602c8.284 0 15 6.716 15 15v30.377c0 8.285-6.716 15-15 15z" fill="#355f7f"/><g><g><path d="m272.372 504.5h-115.36c-8.591 0-15.555-6.964-15.555-15.555v-70.773c0-8.591 6.964-15.555 15.555-15.555h115.359c8.591 0 15.555 6.964 15.555 15.555v70.773c.001 8.591-6.963 15.555-15.554 15.555z" fill="#c59191"/><path d="m272.372 402.616h-30c8.591 0 15.555 6.964 15.555 15.556v70.773c0 8.591-6.964 15.556-15.555 15.556h30c8.591 0 15.555-6.964 15.555-15.556v-70.773c0-8.592-6.964-15.556-15.555-15.556z" fill="#b98080"/></g></g><g><path d="m301.679 310.539v-119.169c0-16.356 9.958-31.065 25.144-37.139l37.283-14.913c7.593-3.037 12.572-10.391 12.572-18.57v-16.459h52.822v16.459c0 8.178 4.979 15.532 12.572 18.57l37.283 14.913c15.186 6.075 25.144 20.783 25.144 37.139v119.169c0 10.355-8.395 18.75-18.75 18.75-10.355 0-18.75-8.395-18.75-18.75v-11.25h-127.82v11.25c0 10.355-8.395 18.75-18.75 18.75-10.356 0-18.75-8.395-18.75-18.75z" fill="#f58a97"/><g><path d="m504.5 299.289v-107.918c0-16.356-9.958-31.065-25.144-37.139l-37.283-14.914c-7.593-3.037-12.572-10.391-12.572-18.569v-16.459h-26.089v31.459c0 8.178 4.979 15.532 12.572 18.569l37.283 14.914c15.186 6.074 25.144 20.783 25.144 37.139v92.918z" fill="#f07281"/></g><path d="m376.678 104.289v16.459c0 8.178-4.979 15.532-12.572 18.569 10.458 2.557 24.482 4.898 41.075 4.687 14.679-.187 27.211-2.32 36.89-4.687-7.593-3.038-27.572-10.392-27.572-18.569l15-16.459z" fill="#ffcebf"/><path d="m405.206 144.004c14.669-.189 27.192-2.321 36.866-4.687-.831-.333-1.624-.725-2.389-1.156-6.246-3.521-10.187-10.24-10.183-17.413v-16.459h-26.089v31.459c0 2.911.641 5.712 1.795 8.256z" fill="#ffb09e"/><path d="m320.428 329.289c10.355 0 18.75-8.395 18.75-18.75v-11.25h-37.5v11.25c0 10.356 8.395 18.75 18.75 18.75z" fill="#ffcebf"/><path d="m485.75 314.289c10.355 0 16.049 6.158 16.049-4.198l2.701-10.802h-37.5v11.25c0 7.696 4.637 14.309 11.269 17.198 2.292.998 4.822-13.448 7.481-13.448z" fill="#ffcebf"/><path d="m478.411 325.539c0 .742-.055 1.471-.139 2.19.001 0 .002.001.003.002 2.333 1.015 4.912 1.558 7.474 1.558 7.119 0 13.312-3.968 16.487-9.813 1.443-2.657 2.263-5.701 2.263-8.938v-11.25h-26.089v26.251z" fill="#ffb09e"/><path d="m452 489.5h-97.821l-15-160.211v-30h127.821v30z" fill="#82aee3"/><path d="m437 299.289v30l-15 160.211h30l15-160.211v-30z" fill="#528fd8"/><path d="m339.179 224.289h127.821v90h-127.821z" fill="#f58a97"/><path d="m458.971 504.5h-47.852c-4.434 0-8.029-3.595-8.029-8.029 0-12.134 9.837-21.971 21.971-21.971h19.969c12.134 0 21.971 9.837 21.971 21.971-.001 4.434-3.596 8.029-8.03 8.029z" fill="#554e56"/><path d="m445.029 474.5h-19.969c-1.726 0-3.404.206-5.015.582 9.716 2.27 16.955 10.981 16.955 21.389 0 4.435-3.595 8.029-8.029 8.029h30c4.435 0 8.029-3.595 8.029-8.029 0-12.135-9.837-21.971-21.971-21.971z" fill="#433f43"/><path d="m395.06 504.5h-47.852c-4.434 0-8.029-3.595-8.029-8.029 0-12.134 9.837-21.971 21.971-21.971h19.969c12.134 0 21.971 9.837 21.971 21.971-.001 4.434-3.596 8.029-8.03 8.029z" fill="#554e56"/><path d="m381.118 474.5h-19.969c-1.726 0-3.404.206-5.015.582 9.716 2.27 16.955 10.981 16.955 21.389 0 4.435-3.595 8.029-8.029 8.029h30c4.434 0 8.029-3.595 8.029-8.029 0-12.135-9.836-21.971-21.971-21.971z" fill="#433f43"/><path d="m403.089 118.494c-23.524 0-42.593-19.07-42.593-42.593v-43.401c0-13.807 11.193-25 25-25h35.186c13.807 0 25 11.193 25 25v43.401c0 23.524-19.069 42.593-42.593 42.593z" fill="#ffcebf"/><path d="m420.682 7.5h-30c13.807 0 25 11.193 25 25v43.401c.217 2.016 1.358 14.529-7.751 24.5-7.68 8.407-19.72 11.801-31.253 8.918 3.515 2.727 9.464 6.536 17.628 8.264 3.26.69 6.237.914 8.783.912 23.523 0 42.593-19.07 42.593-42.593v-43.402c0-13.807-11.192-25-25-25z" fill="#ffb09e"/><path d="m420.682 7.5h-35.186c-13.807 0-25 11.193-25 25v18.5l5.769 13.742c4.134 9.85 13.774 16.258 24.456 16.258h24.736c10.682 0 20.322-6.408 24.456-16.258l5.769-13.742v-18.5c0-13.807-11.192-25-25-25z" fill="#355f7f"/><path d="m420.682 7.5h-30c13.807 0 25 11.193 25 25v43.401c.073.676.248 2.539.107 5.086 10.549-.132 20.033-6.499 24.125-16.246l5.768-13.741v-18.5c0-13.807-11.192-25-25-25z" fill="#305972"/></g></g><g><path d="m161.826 207.976 29.892-29.893-20.149 10.572c-2.994-.658-5.49-17.462-7.08-19.887l-25.504 25.504 13.704 13.704c2.524 2.522 6.614 2.522 9.137 0z" fill="#eaf6ff"/><path d="m166.594 171.163c-.81-.697-1.518-1.502-2.103-2.395 0 0-.001 0-.001-.001l-16.407 16.407 29.96 6.584 13.676-13.676-20.149-4.428c-.353-.078-.698-.174-1.037-.283-1.193-.38-2.43-.909-3.939-2.208z" fill="#d8ecfe"/><path d="m86.254 178.083 29.892 29.893c2.523 2.522 6.613 2.522 9.136 0l13.704-13.704-25.504-25.504c-1.589 2.425-4.085 4.229-7.08 4.887z" fill="#eaf6ff"/></g></g><path d="m504.5 236.464c4.143 0 7.5-3.358 7.5-7.5v-37.594c0-19.528-11.717-36.839-29.855-44.104l-37.285-14.909c-4.774-1.912-7.859-6.468-7.859-11.607v-8.02c9.941-9.16 16.183-22.277 16.183-36.829v-43.401c0-17.92-14.579-32.5-32.5-32.5h-35.187c-17.921 0-32.5 14.58-32.5 32.5v43.401c0 14.552 6.242 27.67 16.184 36.83v8.019c0 5.139-3.084 9.695-7.854 11.606l-37.294 14.912c-18.135 7.263-29.853 24.574-29.853 44.103v48.23h-46.31v-23.35c0-19.417-13.766-36.532-32.729-40.695l-41.971-9.232c-1.768-.386-3.051-1.981-3.051-3.793v-11.062c11.181-9.079 18.343-22.924 18.343-38.416v-54.991c0-14.139-11.503-25.642-25.642-25.642h-47.67c-14.139 0-25.642 11.503-25.642 25.642v54.991c0 15.49 7.161 29.334 18.34 38.414v11.064c-.003 1.817-1.264 3.402-3.061 3.795l-41.957 9.229c-18.964 4.163-32.73 21.278-32.73 40.695v23.35h-7.6c-12.406 0-22.5 10.093-22.5 22.5v30.38c0 9.777 6.271 18.114 15 21.21v190.81c0 4.142 3.357 7.5 7.5 7.5s7.5-3.358 7.5-7.5v-189.52h184c4.143 0 7.5-3.358 7.5-7.5s-3.357-7.5-7.5-7.5h-191.5c-4.136 0-7.5-3.364-7.5-7.5v-30.38c0-4.136 3.364-7.5 7.5-7.5h271.68c0 .02-.003 45.358 0 45.38h-44.377c-4.143 0-7.5 3.358-7.5 7.5s3.357 7.5 7.5 7.5h44.757c2.038 12.325 13.229 21.81 25.87 21.81 4.188 0 8.146-.991 11.662-2.742l12.905 137.791c-8.014 5.273-13.319 14.342-13.319 24.632 0 8.563 6.967 15.529 15.529 15.529h47.852c2.94 0 5.683-.836 8.029-2.262 2.347 1.426 5.089 2.262 8.029 2.262h47.853c8.563 0 15.529-6.966 15.529-15.529 0-10.289-5.304-19.358-13.318-24.631l12.904-137.775c2.478 1.231 5.144 2.053 7.914 2.449v167.986c0 4.142 3.357 7.5 7.5 7.5s7.5-3.358 7.5-7.5v-170.248c8.86-4.221 15-13.262 15-23.712v-46.54c0-4.142-3.357-7.5-7.5-7.5s-7.5 3.358-7.5 7.5v27.789h-22.5v-67.5c0-4.142-3.357-7.5-7.5-7.5s-7.5 3.358-7.5 7.5v82.501h-112.819l-.001-82.501c0-4.142-3.357-7.5-7.5-7.5s-7.5 3.358-7.5 7.5v67.5h-22.499v-100.419c0-13.362 8.019-25.208 20.425-30.176l35.12-14.042c13.3 3.05 26.926 4.527 40.553 4.353 12.158-.155 24.314-1.629 36.182-4.352l35.112 14.04c12.409 4.97 20.428 16.815 20.428 30.177v37.594c0 4.142 3.357 7.5 7.5 7.5zm-327.769-54-19.472 19.473-7.666-7.666 15.256-15.255c1.576.883 3.286 1.56 5.111 1.958zm-21.059-15.485-16.686 16.686-16.688-16.688c.353-1.436.552-2.923.552-4.447v-2.717c5.062 1.751 10.487 2.716 16.137 2.716 5.649 0 11.073-.964 16.134-2.715v2.716c-.001 1.524.198 3.012.551 4.449zm-51.162-108.917c0-5.868 4.773-10.642 10.642-10.642h47.67c5.868 0 10.642 4.774 10.642 10.642v18.918l-9.899-4.299c-7.19-3.123-15.359-3.866-22.996-2.09l-36.058 8.38v-20.909zm0 54.99v-18.682l39.453-9.169c4.522-1.051 9.364-.612 13.626 1.239l15.874 6.893v19.719c0 19.01-15.466 34.477-34.477 34.477s-34.476-15.466-34.476-34.477zm3.488 67.926c1.831-.399 3.545-1.078 5.125-1.963l15.257 15.257-7.666 7.666-19.473-19.473zm124.872 58.622h-187.77v-23.35c0-12.427 8.811-23.38 20.952-26.045l17.801-3.916 26.99 26.99c2.637 2.637 6.143 4.089 9.872 4.089s7.234-1.452 9.871-4.089l8.4-8.4 8.4 8.4c2.637 2.637 6.143 4.089 9.871 4.089 3.729 0 7.235-1.452 9.872-4.089l26.99-26.989 17.802 3.916c12.139 2.665 20.948 13.618 20.948 26.044v23.35zm241.63 67.189h22.5c.891 7.227-3.117 15.001-11.25 15.001-8.18 0-11.997-7.729-11.25-15.001zm-15.529 190.211h-47.853c-.292 0-.529-.237-.529-.529 0-7.979 6.491-14.471 14.471-14.471h19.97c7.979 0 14.471 6.492 14.471 14.471-.001.292-.238.529-.53.529zm-112.291-175.21h112.82v7.15l-12.935 138.1c-1.342-.086-20.051-.04-21.506-.04-5.257 0-10.193 1.39-14.471 3.813v-105.99c0-4.142-3.357-7.5-7.5-7.5s-7.5 3.358-7.5 7.5v105.99c-4.278-2.422-9.214-3.813-14.471-3.813-2.502 0-19.55-.056-21.504.04l-12.935-138.1v-7.15zm14.469 160.21h19.969c7.979 0 14.471 6.492 14.471 14.471 0 .292-.237.529-.529.529h-47.852c-.292 0-.529-.237-.529-.529 0-7.979 6.491-14.471 14.47-14.471zm-29.47-175.211c.894 7.225-3.118 15.001-11.249 15.001-8.192 0-11.986-7.731-11.25-15.001zm36.317-274.289c0-9.649 7.851-17.5 17.5-17.5h35.187c9.649 0 17.5 7.851 17.5 17.5v16.991l-5.184 12.349c-2.974 7.083-9.859 11.661-17.542 11.661h-24.736c-7.682 0-14.567-4.577-17.541-11.661l-5.184-12.349zm37.09 104.005c-8.282.11-16.578-.45-24.787-1.659 2.231-3.751 3.58-8.046 3.824-12.592 5.854 2.404 12.255 3.74 18.966 3.74s13.113-1.336 18.968-3.74c.244 4.542 1.59 8.833 3.818 12.581-6.888 1.014-13.838 1.582-20.789 1.67zm-1.997-25.51c-17.955 0-32.794-13.556-34.842-30.97 6.082 5.355 14.004 8.475 22.474 8.475h24.736c8.471 0 16.394-3.12 22.475-8.475-2.049 17.413-16.888 30.97-34.843 30.97zm-130.717 284.121h-17.785v-27.653c0-9.649-7.851-17.5-17.5-17.5h-44.789c-9.649 0-17.5 7.851-17.5 17.5v27.653h-17.785c-12.713 0-23.056 10.343-23.056 23.056v70.773c0 12.713 10.343 23.056 23.056 23.056h115.359c12.713 0 23.055-10.343 23.055-23.056v-70.773c0-12.714-10.342-23.056-23.055-23.056zm-82.574-27.654c0-1.378 1.121-2.5 2.5-2.5h44.789c1.379 0 2.5 1.122 2.5 2.5v27.653h-49.789zm90.629 121.482c0 4.442-3.613 8.056-8.055 8.056h-115.359c-4.442 0-8.056-3.614-8.056-8.056v-70.773c0-4.442 3.613-8.056 8.056-8.056h115.359c4.441 0 8.055 3.614 8.055 8.056z"/></g></svg>