<svg height="512" viewBox="0 0 58 58" width="512" xmlns="http://www.w3.org/2000/svg"><g id="Page-1" fill="none" fill-rule="evenodd"><g id="005---Presentor-ID" fill-rule="nonzero"><path id="Shape" d="m22 18h-18c-2.209139 0-4 1.790861-4 4v32c0 2.209139 1.790861 4 4 4h50c2.209139 0 4-1.790861 4-4v-32c0-2.209139-1.790861-4-4-4h-18" fill="#ecf0f1"/><path id="Shape" d="m36 18h4v6c-.0032948 1.1032019-.8967981 1.9967052-2 2h-18c-1.1032019-.0032948-1.9967052-.8967981-2-2v-6z" fill="#84b5cb"/><path id="Shape" d="m24 0h10c1.1045695 0 2 .8954305 2 2v19c0 .5522847-.4477153 1-1 1h-12c-.5522847 0-1-.4477153-1-1v-19c0-1.1045695.8954305-2 2-2z" fill="#2980ba"/><rect id="Rectangle-path" fill="#285680" height="23" rx="1" width="24" x="5" y="30"/><circle id="Oval" cx="17" cy="40" fill="#fdd7ad" r="6"/><path id="Shape" d="m25 51v2h-16v-2c0-2.7614237 2.2385763-5 5-5h6c2.7614237 0 5 2.2385763 5 5z" fill="#f29c1f"/><g fill="#3b97d3"><path id="Shape" d="m53 33h-19c-.5522847 0-1-.4477153-1-1s.4477153-1 1-1h19c.5522847 0 1 .4477153 1 1s-.4477153 1-1 1z"/><path id="Shape" d="m39 40h-5c-.5522847 0-1-.4477153-1-1s.4477153-1 1-1h5c.5522847 0 1 .4477153 1 1s-.4477153 1-1 1z"/><path id="Shape" d="m44 44h-10c-.5522847 0-1-.4477153-1-1s.4477153-1 1-1h10c.5522847 0 1 .4477153 1 1s-.4477153 1-1 1z"/><path id="Shape" d="m37 48h-3c-.5522847 0-1-.4477153-1-1s.4477153-1 1-1h3c.5522847 0 1 .4477153 1 1s-.4477153 1-1 1z"/><path id="Shape" d="m47 52h-13c-.5522847 0-1-.4477153-1-1s.4477153-1 1-1h13c.5522847 0 1 .4477153 1 1s-.4477153 1-1 1z"/></g></g></g></svg>