<?xml version="1.0" encoding="utf-8"?>
<!-- Generator: Adobe Illustrator 25.2.0, SVG Export Plug-In . SVG Version: 6.00 Build 0)  -->
<svg version="1.1" id="Layer_1" xmlns="http://www.w3.org/2000/svg" xmlns:xlink="http://www.w3.org/1999/xlink" x="0px" y="0px"
	 viewBox="0 0 23.4 23.1" style="enable-background:new 0 0 23.4 23.1;" xml:space="preserve">
<style type="text/css">
	.st0{fill-rule:evenodd;clip-rule:evenodd;fill:url(#SVGID_1_);}
	.st1{fill:none;}
</style>
<radialGradient id="SVGID_1_" cx="-32668.4258" cy="-289.6583" r="4333.2998" gradientTransform="matrix(-6.786294e-03 -1.937291e-02 -2.906798e-02 6.571893e-03 -221.2417 -603.3354)" gradientUnits="userSpaceOnUse">
	<stop  offset="0" style="stop-color:#923F95"/>
	<stop  offset="0.2902" style="stop-color:#55509F"/>
	<stop  offset="1" style="stop-color:#00BAE2"/>
</radialGradient>
<path class="st0" d="M12,8.4c-0.4,0.2-0.8,0.1-1-0.3c-0.2-0.3-0.1-0.8,0.3-1l4.1-2.3c1.3-0.6,2.9-0.2,3.7,1l2.6,4.5
	c1.2,2,1.4,4.4,0.9,6.5c-0.6,2.1-2,4-4,5.2s-4.4,1.4-6.5,0.8s-4-1.9-5.2-4L0.1,7.5c-0.2-0.4-0.1-0.8,0.3-1s0.8-0.1,1,0.3L8,18.2
	c1,1.7,2.6,2.8,4.3,3.3c1.8,0.5,3.7,0.3,5.4-0.7s2.8-2.6,3.3-4.3c0.5-1.8,0.3-3.7-0.7-5.4l-2.5-4.3c-0.4-0.7-1.2-0.9-1.9-0.6L12,8.4
	z M7.4,6.6c-0.2-0.4-0.1-0.8,0.3-1s0.8-0.1,1,0.3l5.1,9l0,0c0.1,0.1,0.2,0.2,0.3,0.2s0.2,0,0.3,0c0.1-0.1,0.2-0.2,0.2-0.3
	s0-0.2,0-0.3L13.1,12c-0.2-0.4-0.1-0.8,0.3-1c0.4-0.2,0.8-0.1,1,0.3l1.4,2.5c0.3,0.4,0.3,1,0.2,1.4c-0.1,0.5-0.4,0.9-0.9,1.2
	s-1,0.3-1.5,0.2c-0.5-0.1-0.9-0.4-1.2-0.9l0,0l0,0L7.4,6.6z M1.6,1.3c-0.2-0.4-0.1-0.8,0.3-1s0.8-0.1,1,0.3l9,15.4
	c0.4,0.6,1,1.1,1.6,1.2s1.4,0.1,2-0.3s1-1,1.2-1.6c0.2-0.7,0.1-1.4-0.3-2L15,10.8c-0.2-0.4-0.1-0.8,0.3-1c0.4-0.2,0.8-0.1,1,0.3
	l1.5,2.5c0.6,1,0.7,2.1,0.4,3.1c-0.3,1-0.9,1.9-1.9,2.5s-2.1,0.7-3.1,0.4c-1-0.3-1.9-0.9-2.5-1.9L1.6,1.3z M0.8,4.3
	c-0.2-0.4-0.1-0.8,0.3-1s0.8-0.1,1,0.3l7.8,13.6c0.7,1.2,1.8,1.9,3,2.3c1.2,0.3,2.5,0.2,3.7-0.5s1.9-1.8,2.3-3
	c0.3-1.2,0.2-2.5-0.5-3.7l-2.1-3.7L13,10.4c-0.4,0.2-0.8,0.1-1-0.3s-0.1-0.8,0.3-1l3.9-2.2c0.4-0.2,0.8-0.1,1,0.3l2.5,4.3
	c0.9,1.5,1,3.2,0.6,4.8s-1.4,3-3,3.9c-1.5,0.9-3.2,1-4.8,0.6s-3-1.4-3.9-3L0.8,4.3z"/>
<rect x="-117.4" y="23.4" class="st1" width="44.7" height="44.7"/>
</svg>
