<svg id="Layer_1" data-name="Layer 1" xmlns="http://www.w3.org/2000/svg" viewBox="0 0 212.53 211.86"><defs><style>.cls-1{fill:#1a1a18;}.cls-1,.cls-2,.cls-3,.cls-4{fill-rule:evenodd;}.cls-2{fill:#009ee3;}.cls-3{fill:#0068b4;}.cls-4{fill:#a1d9f8;}</style></defs><path class="cls-1" d="M391.23,501.71V484.89h5A7.8,7.8,0,0,1,401,486a4.21,4.21,0,0,1,1.48,3.57,4.61,4.61,0,0,1-1.54,3.77,7,7,0,0,1-4.55,1.28h-2.93v7.07Zm2.19-8.77h2.88a4.42,4.42,0,0,0,2.93-.81,3.23,3.23,0,0,0,.93-2.56,2.72,2.72,0,0,0-.94-2.32,5.1,5.1,0,0,0-3.06-.72h-2.74Zm-51.65-8.05H344v11.32a5.19,5.19,0,0,0,.79,3.28,3.35,3.35,0,0,0,2.67.92,3.57,3.57,0,0,0,2.82-1,4.63,4.63,0,0,0,.91-3.18V484.89h2.14v11a11,11,0,0,1-.28,3,3.83,3.83,0,0,1-.94,1.55,5.26,5.26,0,0,1-2,1.24,8.66,8.66,0,0,1-5.45,0,4.48,4.48,0,0,1-1.94-1.29,3.35,3.35,0,0,1-.71-1.45,15,15,0,0,1-.21-3Zm-50.16,8.41q0-4.69,1.49-6.75c1-1.37,2.59-2.06,4.81-2.06s3.84.68,4.82,2,1.48,3.61,1.48,6.77-.49,5.42-1.47,6.78-2.59,2-4.83,2A5.51,5.51,0,0,1,293.1,500Q291.62,498,291.61,493.3Zm2.27,0q0,4.05.91,5.61a3.95,3.95,0,0,0,6.25,0c.6-1,.89-2.89.89-5.64s-.29-4.62-.89-5.63a4,4,0,0,0-6.25.05C294.18,488.74,293.88,490.61,293.88,493.3Zm-51.57,8.41V484.89h5.52a7.8,7.8,0,0,1,4.53,1.07,3.73,3.73,0,0,1,1.48,3.25,3.9,3.9,0,0,1-.9,2.7,4.9,4.9,0,0,1-2.75,1.42,3.24,3.24,0,0,1,3.44,3.34c0,.4.09,1,.14,1.69.14,1.83.48,2.95,1,3.35h-2.71a6.33,6.33,0,0,1-.53-2.74c0-.72-.08-1.29-.12-1.72a3.19,3.19,0,0,0-1.06-2.37,5.51,5.51,0,0,0-3.13-.64h-2.79v7.47Zm2.15-9.1h2.66a6,6,0,0,0,3.39-.76,2.7,2.7,0,0,0,1.08-2.36,2.57,2.57,0,0,0-1-2.24,5.28,5.28,0,0,0-3.09-.7h-3.08Zm-41.65,9.1-.12-2.33a4.12,4.12,0,0,1-1.71,2A6.08,6.08,0,0,1,193.5,500q-1.5-2.16-1.5-6.76t1.58-6.63q1.57-2.07,5-2.07a6,6,0,0,1,4.17,1.37,5.06,5.06,0,0,1,1.52,3.84h-2.17a3.79,3.79,0,0,0-1-2.66,3.6,3.6,0,0,0-2.63-.94,3.42,3.42,0,0,0-3.25,1.72q-1,1.71-1,5.91a9.46,9.46,0,0,0,1,5,3.49,3.49,0,0,0,3.16,1.62,3.54,3.54,0,0,0,2.94-1.26,5.78,5.78,0,0,0,1-3.68c0-.2,0-.35,0-.46s0-.2,0-.3H198v-1.7h6.56v8.77Z" transform="translate(-191.37 -315.01)"/><polygon class="cls-2" points="140.76 75.09 140.76 44.71 140.75 44.7 113.71 59.9 105.25 64.66 78.21 79.86 61.23 89.4 61.23 119.79 100.99 97.45 105.25 95.05 132.28 79.86 140.75 75.1 140.76 75.09"/><polygon class="cls-3" points="61.23 119.79 61.23 89.4 61.23 30.4 61.23 0.01 61.22 0 34.2 15.19 34.2 15.21 34.2 59.9 34.2 104.59 34.2 104.61 61.22 119.8 61.23 119.79"/><polygon class="cls-4" points="69.71 35.17 96.75 19.97 61.23 0.01 61.23 30.4 69.71 35.17"/><polygon class="cls-3" points="69.73 44.71 69.73 75.09 69.75 75.1 96.78 59.9 105.25 55.14 132.28 39.95 149.26 30.4 149.26 0.01 109.5 22.36 105.25 24.75 78.21 39.95 69.75 44.7 69.73 44.71"/><polygon class="cls-2" points="149.26 0.01 149.26 30.4 149.26 89.4 149.26 119.79 149.27 119.8 176.29 104.61 176.29 104.59 176.29 59.9 176.29 15.21 176.29 15.19 149.27 0 149.26 0.01"/><polygon class="cls-4" points="140.78 84.63 113.74 99.83 149.26 119.79 149.26 89.4 140.78 84.63"/><path class="cls-1" d="M401.8,455.25H391.42v19.54h-4.56V455.25H376.44v-4.12H401.8Zm-32.42,19.54H346.6V451.13h22.78v4.12H351.19v15.42h18.19Zm-1.2-9.94H353.12v-4.13h15.06ZM338,474.79H315.17V451.13H338v4.12H319.77v15.42H338Zm-1.19-9.94H321.7v-4.13h15.06Zm-30.08,10h-5.17l-3.82-16.56-8.84,15.28a2.74,2.74,0,0,1-2.47,1.56,3,3,0,0,1-2.71-1.59l-8.84-15.25-3.78,16.56h-5.21l5.9-21.72a3.18,3.18,0,0,1,1-1.63,2.71,2.71,0,0,1,1.83-.69c1,0,2,.77,2.86,2.32l8.8,15.49,8.84-15.49c.9-1.55,1.85-2.32,2.86-2.32a2.75,2.75,0,0,1,1.85.73,3.37,3.37,0,0,1,1,1.59ZM258.2,464.15q0,5.72-3.83,8.35-3.36,2.29-10,2.29h-1.58q-6.6,0-10-2.29-3.83-2.62-3.82-8.35v-13h4.59v13c0,2.84,1.1,4.73,3.28,5.65q2.13.87,7.49.87,4.49,0,6.57-1.22,2.63-1.51,2.62-5.3v-13h4.6Zm-37.14,3.33a6.48,6.48,0,0,1-2.66,5.4,10.37,10.37,0,0,1-6.38,1.91H191.91v-4.12H212a6.72,6.72,0,0,0,3.29-.77,2.83,2.83,0,0,0,1.58-2.52,2.67,2.67,0,0,0-1.62-2.46,6.7,6.7,0,0,0-3.25-.73H199.59a9.49,9.49,0,0,1-5.75-1.7,6,6,0,0,1,0-9.67,9.48,9.48,0,0,1,5.75-1.69h19.89v4.12H199.59a3.78,3.78,0,0,0-2.24.66,2.06,2.06,0,0,0-.92,1.76,2,2,0,0,0,.92,1.77,3.9,3.9,0,0,0,2.24.62H212a10.1,10.1,0,0,1,6.38,2A6.59,6.59,0,0,1,221.06,467.48Z" transform="translate(-191.37 -315.01)"/><path class="cls-1" d="M396.26,522.38h1.4v.47a2.93,2.93,0,0,0,.63,2,2.34,2.34,0,0,0,1.84.68,2.25,2.25,0,0,0,1.72-.66,2.53,2.53,0,0,0,.63-1.82,2.36,2.36,0,0,0-.38-1.43,4.07,4.07,0,0,0-1.73-1l-.89-.33a7.77,7.77,0,0,1-1.94-.88,3.07,3.07,0,0,1-.82-1.16,4.2,4.2,0,0,1-.27-1.57,3.69,3.69,0,0,1,.95-2.69,3.56,3.56,0,0,1,2.66-1,3.46,3.46,0,0,1,2.53.9,3.35,3.35,0,0,1,.91,2.49,1.23,1.23,0,0,1,0,.17c0,.08,0,.13,0,.17h-1.35v-.14a2.47,2.47,0,0,0-.55-1.72,2,2,0,0,0-1.54-.6,2.23,2.23,0,0,0-1.63.58,2.08,2.08,0,0,0-.59,1.56,2.3,2.3,0,0,0,.41,1.45,4.09,4.09,0,0,0,1.76,1l.48.18a9.8,9.8,0,0,1,2.47,1.14,2.8,2.8,0,0,1,.73,1.11,4.54,4.54,0,0,1,.23,1.56,4,4,0,0,1-1,2.93,3.91,3.91,0,0,1-2.9,1,3.59,3.59,0,0,1-2.79-1,4.3,4.3,0,0,1-.94-3,2,2,0,0,1,0-.22,2.13,2.13,0,0,0,0-.22m-20.07,4.2V513.36h6.55v1.37h-5.09V519h4.76v1.34h-4.76v4.87h5.15v1.39Zm-21.44-4.2h1.4v.47a2.93,2.93,0,0,0,.63,2,2.34,2.34,0,0,0,1.84.68,2.26,2.26,0,0,0,1.72-.66,2.53,2.53,0,0,0,.63-1.82,2.36,2.36,0,0,0-.38-1.43,4.14,4.14,0,0,0-1.73-1l-.89-.33a7.77,7.77,0,0,1-1.94-.88,3.07,3.07,0,0,1-.82-1.16,4.2,4.2,0,0,1-.27-1.57,3.69,3.69,0,0,1,.95-2.69,3.56,3.56,0,0,1,2.66-1,3.46,3.46,0,0,1,2.53.9,3.35,3.35,0,0,1,.91,2.49,1.23,1.23,0,0,1,0,.17c0,.08,0,.13,0,.17h-1.35v-.14a2.47,2.47,0,0,0-.55-1.72,2,2,0,0,0-1.54-.6,2.23,2.23,0,0,0-1.63.58,2.08,2.08,0,0,0-.59,1.56,2.3,2.3,0,0,0,.41,1.45,4.09,4.09,0,0,0,1.76,1l.48.18a9.8,9.8,0,0,1,2.47,1.14,2.8,2.8,0,0,1,.73,1.11,4.8,4.8,0,0,1,.23,1.56,4,4,0,0,1-1,2.93,3.91,3.91,0,0,1-2.9,1,3.59,3.59,0,0,1-2.79-1,4.3,4.3,0,0,1-.94-3,2,2,0,0,1,0-.22A2.13,2.13,0,0,0,354.75,522.38Zm-15.33,4.2V513.36h1.52v13.22Zm-22,0V513.36h3.71a4.67,4.67,0,0,1,3.05.84,3.15,3.15,0,0,1,1,2.55,3.41,3.41,0,0,1-.61,2.13,3.23,3.23,0,0,1-1.85,1.11,2.39,2.39,0,0,1,1.65.71,3.34,3.34,0,0,1,.67,1.91c0,.32.06.77.09,1.33.09,1.44.32,2.32.7,2.64H324a5.76,5.76,0,0,1-.35-2.16c0-.56-.06-1-.09-1.34a2.7,2.7,0,0,0-.71-1.87,3.26,3.26,0,0,0-2.1-.5h-1.88v5.87Zm1.45-7.16h1.79a3.64,3.64,0,0,0,2.28-.59,2.28,2.28,0,0,0,.72-1.86,2.18,2.18,0,0,0-.64-1.76,3.16,3.16,0,0,0-2.08-.55h-2.07Zm-22.49,7.16V513.36h3.39a4.6,4.6,0,0,1,3.15.89,3.58,3.58,0,0,1,1,2.8,4,4,0,0,1-1,3,4.23,4.23,0,0,1-3.06,1h-2v5.56Zm1.47-6.89h1.94a2.7,2.7,0,0,0,2-.64,2.78,2.78,0,0,0,.63-2,2.31,2.31,0,0,0-.64-1.83,3,3,0,0,0-2.06-.57h-1.84Zm-23.47,6.89V513.36h3.7a4.65,4.65,0,0,1,3.05.84,3.12,3.12,0,0,1,1,2.55,3.47,3.47,0,0,1-.6,2.13,3.29,3.29,0,0,1-1.86,1.11,2.39,2.39,0,0,1,1.65.71,3.34,3.34,0,0,1,.67,1.91c0,.32.06.77.09,1.33.09,1.44.33,2.32.7,2.64H281a5.76,5.76,0,0,1-.35-2.16c0-.56-.06-1-.09-1.34a2.65,2.65,0,0,0-.71-1.87,3.26,3.26,0,0,0-2.1-.5h-1.88v5.87Zm1.44-7.16h1.79a3.6,3.6,0,0,0,2.28-.59,2.29,2.29,0,0,0,.73-1.86,2.18,2.18,0,0,0-.65-1.76,3.16,3.16,0,0,0-2.08-.55h-2.07ZM254,526.58V513.36h6.56v1.37h-5.1V519h4.77v1.34h-4.77v4.87h5.15v1.39Zm-17.83,0V514.71h-3.37v-1.35h8.05v1.35H237.7v11.87Zm-24.37,0V513.36h2l4.58,11.34-.13-11.34h1.42v13.22h-1.89l-4.65-11.68.12,11.68Zm-20.35,0V513.36H198v1.37h-5.1V519h4.76v1.34h-4.76v4.87h5.15v1.39Z" transform="translate(-191.37 -315.01)"/></svg>