<?xml version="1.0" encoding="utf-8"?>
<!-- Generator: Adobe Illustrator 25.2.0, SVG Export Plug-In . SVG Version: 6.00 Build 0)  -->
<svg version="1.1" id="Layer_1" xmlns="http://www.w3.org/2000/svg" xmlns:xlink="http://www.w3.org/1999/xlink" x="0px" y="0px"
	 viewBox="0 0 245 238.2" style="enable-background:new 0 0 245 238.2;" xml:space="preserve">
<style type="text/css">
	.st0{fill-rule:evenodd;clip-rule:evenodd;fill:url(#SVGID_1_);}
	.st1{fill-rule:evenodd;clip-rule:evenodd;fill:#373435;}
</style>
<g id="_1599710528">
	
		<radialGradient id="SVGID_1_" cx="3935.5071" cy="-6921.5723" r="4333.2998" gradientTransform="matrix(-5.786762e-02 -0.1652 0.2479 -5.603940e-02 2025.1808 496.7827)" gradientUnits="userSpaceOnUse">
		<stop  offset="0" style="stop-color:#923F95"/>
		<stop  offset="0.2902" style="stop-color:#55509F"/>
		<stop  offset="1" style="stop-color:#00BAE2"/>
	</radialGradient>
	<path class="st0" d="M108.1,70.8c-3,1.7-6.8,0.6-8.6-2.4c-1.8-3-0.7-6.8,2.3-8.6l34.6-20c11.3-5.2,24.7-1.4,31.7,8.9l22.2,38.7
		c10.1,17.4,12.1,37.4,7.3,55.5c-4.9,18.1-16.6,34.4-34.1,44.5s-37.4,12.1-55.5,7.2c-18.1-4.8-34.4-16.6-44.5-34L7,62.6
		c-1.8-3-0.7-6.9,2.3-8.6s6.8-0.7,8.6,2.3l56.5,97.9c8.4,14.4,21.8,24.1,36.8,28.2c15,4,31.5,2.4,45.9-6
		c14.5-8.4,24.2-21.8,28.2-36.8c4-15,2.4-31.5-6-46L158,56.5c-3.3-5.7-10.4-7.9-16.3-5.1L108.1,70.8z M69.3,55
		c-1.7-3-0.7-6.9,2.3-8.6c3-1.7,6.9-0.7,8.6,2.3l43.6,77v-0.1c0.5,0.9,1.3,1.4,2.2,1.7c0.9,0.2,1.9,0.1,2.7-0.3
		c0.8-0.5,1.4-1.3,1.6-2.2c0.3-0.9,0.2-1.9-0.3-2.7l-12.1-21c-1.7-3-0.7-6.9,2.3-8.6c3-1.7,6.8-0.7,8.6,2.3l12.1,21
		c2.2,3.8,2.7,8.3,1.6,12.3c-1.1,4-3.7,7.7-7.5,9.9c-3.9,2.2-8.4,2.6-12.4,1.5c-4-1.1-7.6-3.7-9.9-7.5l0,0V132L69.3,55z M20.2,9.5
		c-1.7-3-0.7-6.9,2.3-8.6s6.9-0.7,8.6,2.3l76.2,132c3.1,5.4,8.1,9,13.8,10.5c5.6,1.5,11.7,0.9,17.1-2.2c5.3-3.1,8.9-8.1,10.4-13.8
		c1.5-5.6,0.9-11.8-2.2-17.1l-12.6-21.7c-1.7-3-0.7-6.9,2.3-8.6c3-1.7,6.9-0.7,8.6,2.3l12.6,21.7c4.8,8.4,5.8,18,3.5,26.8
		c-2.4,8.7-8,16.6-16.4,21.4c-8.4,4.8-17.9,5.8-26.7,3.5c-8.7-2.3-16.6-8-21.4-16.3L20.2,9.5z M13.1,35.2c-1.7-3-0.7-6.9,2.3-8.6
		c3-1.7,6.9-0.7,8.6,2.3l66.9,115.8c5.8,9.9,15,16.6,25.3,19.3c10.4,2.8,21.7,1.7,31.6-4c9.9-5.8,16.5-15,19.3-25.3
		c2.7-10.3,1.6-21.6-4.1-31.5l-18.2-31.6l-27.5,15.9c-3,1.7-6.9,0.7-8.6-2.3c-1.7-3-0.7-6.9,2.3-8.6l33-19.1c3-1.7,6.8-0.6,8.6,2.4
		l21.4,37.1c7.5,12.9,8.9,27.6,5.3,41.1c-3.6,13.4-12.2,25.5-25.2,33c-12.9,7.4-27.6,8.9-41.1,5.3c-13.5-3.6-25.5-12.3-33-25.2
		L13.1,35.2z"/>
	<path class="st1" d="M38.5,228.8c0,3.4-1,5.9-3.1,7.4c-1.8,1.4-4.4,2.1-7.9,2.1h-1.3c-3.5,0-6.2-0.7-8-2.1c-2-1.5-3-4-3-7.4v-11.6
		h3.7v11.6c0,2.5,0.9,4.2,2.6,5c1.2,0.5,3.2,0.8,6,0.8c2.4,0,4.1-0.4,5.3-1.1c1.4-0.9,2.1-2.5,2.1-4.8v-11.6h3.7V228.8z M53.7,229.4
		H42.3v-3.6h11.4V229.4z M81,231.7c0,2-0.7,3.6-2.1,4.8c-1.4,1.2-3.1,1.7-5.1,1.7H57.8v-3.7h16.1c1,0,1.9-0.2,2.6-0.7
		c0.9-0.5,1.3-1.3,1.3-2.2c0-0.9-0.4-1.7-1.3-2.2c-0.7-0.4-1.6-0.6-2.6-0.6h-9.9c-1.8,0-3.4-0.5-4.6-1.5c-1.3-1.2-1.9-2.6-1.9-4.3
		c0-1.8,0.6-3.2,1.9-4.3c1.2-1,2.8-1.5,4.6-1.5h15.9v3.7H63.9c-0.7,0-1.3,0.2-1.8,0.6c-0.5,0.4-0.7,0.9-0.7,1.6
		c0,0.6,0.2,1.2,0.7,1.6c0.5,0.4,1.1,0.6,1.8,0.6h9.9c2,0,3.7,0.6,5.1,1.7C80.3,228.1,81,229.8,81,231.7z M115.7,238.3h-4.2l-3-14.8
		l-7.1,13.6c-0.5,0.9-1.2,1.4-2,1.4c-0.9,0-1.7-0.5-2.2-1.4l-7.1-13.6l-3,14.8H83l4.8-19.4c0.1-0.5,0.4-1,0.8-1.4
		c0.4-0.4,0.9-0.6,1.4-0.6c0.9,0,1.6,0.6,2.3,2l7.1,13.8l7.1-13.8c0.7-1.4,1.5-2,2.3-2c0.5,0,1,0.2,1.4,0.6c0.4,0.4,0.7,0.9,0.9,1.4
		L115.7,238.3z M146.8,238.3l-4.8-0.1l-3.5-5.9h-10l2.2-3.6h5.6l-3.7-6.1l-9.5,15.6h-4.8l11.4-19c0.3-0.5,0.7-0.9,1.2-1.4
		c0.6-0.5,1.2-0.7,1.7-0.7s1.1,0.2,1.7,0.7c0.5,0.4,0.9,0.8,1.2,1.4L146.8,238.3z M173.3,238.3h-5.5l-5.9-6H154v-3.6h9.9
		c1.4,0,2.5-0.3,3.5-0.9c1.1-0.6,1.6-1.7,1.6-3c0-2.7-1.7-4-5-4h-12v17.4h-3.7v-21.1h15.1c2.7,0,4.9,0.6,6.6,1.7
		c1.9,1.4,2.8,3.3,2.8,5.9c0,1.8-0.5,3.3-1.7,4.6c-1,1.2-2.4,2-4.2,2.4L173.3,238.3z M195.6,220.9h-8.3v17.4h-3.7v-17.4h-8.4v-3.7
		h20.3V220.9z M201.8,236.5c0,0.6-0.1,1-0.5,1.4s-0.8,0.5-1.4,0.5c-0.5,0-1-0.1-1.4-0.5s-0.5-0.8-0.5-1.4s0.1-1,0.5-1.4
		c0.4-0.3,0.9-0.5,1.4-0.5c0.6,0,1,0.2,1.4,0.5C201.6,235.5,201.8,235.9,201.8,236.5z M233.9,238.3l-4.8-0.1l-3.5-5.9h-10l2.2-3.6
		h5.5l-3.7-6.1l-9.5,15.6h-4.7l11.4-19c0.3-0.5,0.6-0.9,1.2-1.4c0.6-0.5,1.2-0.7,1.7-0.7c0.6,0,1.2,0.2,1.7,0.7
		c0.4,0.4,0.9,0.8,1.2,1.4L233.9,238.3z M239.9,238.3h-3.7v-21.1h3.7V238.3z"/>
</g>
</svg>
